<svg width="60" height="59" viewBox="0 0 60 59" fill="none" xmlns="http://www.w3.org/2000/svg">
<path d="M40 54.0834V44.5697C40.0938 43.3975 39.9327 42.219 39.5275 41.1128C39.1223 40.0065 38.4823 38.9977 37.65 38.1534C45.5 37.293 53.75 34.3676 53.75 20.9451C53.7493 17.5129 52.4067 14.2122 50 11.7264C51.1396 8.72352 51.0591 5.40439 49.775 2.45844C49.775 2.45844 46.825 1.59803 40 6.09678C34.27 4.56971 28.23 4.56971 22.5 6.09678C15.675 1.59803 12.725 2.45844 12.725 2.45844C11.4409 5.40439 11.3604 8.72352 12.5 11.7264C10.0753 14.2307 8.73131 17.5611 8.75 21.0189C8.75 34.343 17 37.2684 24.85 38.2272C24.0275 39.063 23.3932 40.0596 22.9883 41.1524C22.5834 42.2452 22.417 43.4095 22.5 44.5697V54.0834M22.5 46.7084C10 50.3959 10 40.5626 5 39.3334L22.5 46.7084Z" stroke="black" stroke-width="2" stroke-linecap="round" stroke-linejoin="round"/>
</svg>
