<svg width="60" height="60" viewBox="0 0 60 60" fill="none" xmlns="http://www.w3.org/2000/svg">
<path d="M57.5 7.50008C55.106 9.18878 52.4553 10.4804 49.65 11.3251C48.1444 9.59386 46.1433 8.36681 43.9176 7.8099C41.6918 7.25299 39.3487 7.39307 37.2052 8.21122C35.0617 9.02936 33.2211 10.4861 31.9325 12.3844C30.6438 14.2827 29.9692 16.5309 30 18.8251V21.3251C25.6066 21.439 21.2532 20.4646 17.3275 18.4887C13.4019 16.5128 10.0258 13.5967 7.5 10.0001C7.5 10.0001 -2.5 32.5001 20 42.5001C14.8513 45.995 8.71789 47.7474 2.5 47.5001C25 60.0001 52.5 47.5001 52.5 18.7501C52.4977 18.0537 52.4307 17.3591 52.3 16.6751C54.8515 14.1588 56.6521 10.9819 57.5 7.50008V7.50008Z" stroke="black" stroke-width="2" stroke-linecap="round" stroke-linejoin="round"/>
</svg>
